<?xml version="1.0" standalone="no"?><!DOCTYPE svg PUBLIC "-//W3C//DTD SVG 1.1//EN" "http://www.w3.org/Graphics/SVG/1.1/DTD/svg11.dtd"><svg t="1682322667542" class="icon" viewBox="0 0 1024 1024" version="1.1" xmlns="http://www.w3.org/2000/svg" p-id="3641" width="128" height="128" xmlns:xlink="http://www.w3.org/1999/xlink"><path d="M896.625496 249.995751 656.938532 249.995751l-40.372499-74.051553c-12.967336-22.704095-33.733289-36.264948-55.54813-36.264948l-97.67253 0c-22.044062 0-42.929742 15.944134-55.884798 39.025828-4.672416 8.322549-10.476609 17.695011-16.360619 28.279067-8.429996 15.176654-19.203364 43.011606-24.697495 43.011606L127.373481 249.995751c-35.039028 0-63.534012 32.845059-63.534012 67.884087l0 507.243673c0 35.039028 28.494984 59.198264 63.534012 59.198264l769.252015 0c35.038004 0 63.532989-24.158213 63.532989-59.198264L960.158485 317.878814C960.158485 282.839787 931.6635 249.995751 896.625496 249.995751zM415.216211 221.473137c5.858428-10.55745 11.634991-22.057365 16.294105-30.366611 8.120958-14.475689 19.72832-23.849174 31.834033-23.849174l97.67253 0c11.971659 0 23.483854 8.146541 31.470759 22.124903l33.033347 60.611449L398.101415 249.993704C402.262178 249.995751 407.756309 234.899938 415.216211 221.473137zM127.373481 277.574876l769.252015 0c19.822464 0 35.953863 20.468171 35.953863 40.304961L932.579359 473.415216l-58.697867 70.604034c-6.15621 7.702426-15.33936 9.345856-25.196869 9.345856L191.945125 553.365106c-8.699126 0-17.048281-0.88823-22.87908-7.271614-46.660716-51.064003-67.385736-67.709101-77.646428-75.505671l0-152.707984C91.418594 298.043047 107.551016 277.574876 127.373481 277.574876zM896.625496 856.741625 127.373481 856.741625c-19.822464 0-35.954887-11.795651-35.954887-31.618115l0-317.664943c12.509918 12.160971 31.080879 28.575826 57.285704 57.244772 11.0558 12.072967 26.811646 16.248056 43.240827 16.248056l656.739499 0c18.273179 0 35.310204-5.414313 46.742581-19.694551l37.153178-43.671639 0 307.537282C932.579359 844.944951 916.44796 856.741625 896.625496 856.741625zM521.439488 488.766856c33.637098 0 61.002352-27.376511 61.002352-61.015655 0-33.639145-27.365254-61.002352-61.002352-61.002352-33.640168 0-61.003376 27.363208-61.003376 61.002352C460.437136 461.390345 487.800343 488.766856 521.439488 488.766856zM521.439488 394.32695c18.435884 0 33.423227 14.988366 33.423227 33.42425s-14.987343 33.423227-33.423227 33.423227-33.42425-14.987343-33.42425-33.423227S503.004627 394.32695 521.439488 394.32695z" p-id="3642" fill="#bfbfbf"></path></svg>