<?xml version="1.0" standalone="no"?><!DOCTYPE svg PUBLIC "-//W3C//DTD SVG 1.1//EN" "http://www.w3.org/Graphics/SVG/1.1/DTD/svg11.dtd"><svg t="1682324651831" class="icon" viewBox="0 0 1024 1024" version="1.1" xmlns="http://www.w3.org/2000/svg" p-id="12742" xmlns:xlink="http://www.w3.org/1999/xlink" width="128" height="128"><path d="M808.96 122.368H223.5392a153.2416 153.2416 0 0 0-153.088 153.0368v470.528a153.2416 153.2416 0 0 0 153.088 153.0368H808.96a153.2416 153.2416 0 0 0 153.088-153.0368v-470.528A153.2416 153.2416 0 0 0 808.96 122.368z m101.888 499.8144h-320.5632A103.9872 103.9872 0 0 1 486.4 518.2976v-13.9264a103.9872 103.9872 0 0 1 103.8848-103.8848h320.4608z m-320.4608-272.896A155.2896 155.2896 0 0 0 435.2 504.3712v13.9264a155.2896 155.2896 0 0 0 155.0848 155.0848h320.4608v72.5504A101.9904 101.9904 0 0 1 808.96 847.7696H223.5392a101.9904 101.9904 0 0 1-101.888-101.8368v-470.528a101.9904 101.9904 0 0 1 101.888-101.8368H808.96a101.9904 101.9904 0 0 1 101.888 101.8368v73.8816z" fill="#0278ae" p-id="12743"></path><path d="M561.664 511.3344a33.6896 33.6896 0 1 0 33.6384-33.6384 33.6384 33.6384 0 0 0-33.6384 33.6384z" fill="#0278ae" p-id="12744"></path></svg>