<?xml version="1.0" standalone="no"?><!DOCTYPE svg PUBLIC "-//W3C//DTD SVG 1.1//EN" "http://www.w3.org/Graphics/SVG/1.1/DTD/svg11.dtd"><svg t="1682326310688" class="icon" viewBox="0 0 1024 1024" version="1.1" xmlns="http://www.w3.org/2000/svg" p-id="27347" xmlns:xlink="http://www.w3.org/1999/xlink" width="128" height="128"><path d="M466.192 128a64 64 0 0 1 53.7952 29.3312L583.5744 256H896c35.3456 0 64 28.6544 64 64v512c0 35.3456-28.6544 64-64 64H128c-35.3456 0-64-28.6544-64-64V192c0-35.3456 28.6544-64 64-64h338.192zM896 304H128c-8.8368 0-16 7.1632-16 16v512c0 8.8368 7.1632 16 16 16h768c8.8368 0 16-7.1632 16-16V320c0-8.8368-7.1632-16-16-16z m-429.808-128H128c-8.8368 0-16 7.1632-16 16v66.016A64.1184 64.1184 0 0 1 128 256h398.4704l-46.8304-72.6672a16 16 0 0 0-12.9408-7.3248l-0.5088-0.008z" fill="#0278ae" p-id="27348"></path></svg>