<?xml version="1.0" standalone="no"?><!DOCTYPE svg PUBLIC "-//W3C//DTD SVG 1.1//EN" "http://www.w3.org/Graphics/SVG/1.1/DTD/svg11.dtd"><svg t="1682326228439" class="icon" viewBox="0 0 1024 1024" version="1.1" xmlns="http://www.w3.org/2000/svg" p-id="13907" xmlns:xlink="http://www.w3.org/1999/xlink" width="128" height="128"><path d="M832 298.666667H614.4c-6.4 0-10.666667-2.133333-14.933333-6.4l-81.066667-81.066667c-12.8-12.8-27.733333-19.2-44.8-19.2H192c-36.266667 0-64 27.733333-64 64v533.333333c0 36.266667 27.733333 64 64 64h640c36.266667 0 64-27.733333 64-64V362.666667c0-36.266667-27.733333-64-64-64z m21.333333 490.666666c0 12.8-8.533333 21.333333-21.333333 21.333334H192c-12.8 0-21.333333-8.533333-21.333333-21.333334V256c0-12.8 8.533333-21.333333 21.333333-21.333333h281.6c6.4 0 10.666667 2.133333 14.933333 6.4l81.066667 81.066666c12.8 12.8 27.733333 19.2 44.8 19.2H832c12.8 0 21.333333 8.533333 21.333333 21.333334v426.666666z" p-id="13908" fill="#0278ae"></path><path d="M680.533333 546.133333c-2.133333-2.133333-2.133333-4.266667-4.266666-6.4l-59.733334-59.733333c-8.533333-8.533333-21.333333-8.533333-29.866666 0-4.266667 4.266667-6.4 10.666667-6.4 17.066667V533.333333H362.666667c-12.8 0-21.333333 8.533333-21.333334 21.333334s8.533333 21.333333 21.333334 21.333333h217.6v38.4c0 2.133333 0 6.4 2.133333 8.533333 2.133333 2.133333 2.133333 4.266667 4.266667 6.4 2.133333 2.133333 4.266667 4.266667 6.4 4.266667 4.266667 2.133333 10.666667 2.133333 17.066666 0 2.133333 0 4.266667-2.133333 6.4-4.266667l59.733334-59.733333c2.133333-2.133333 4.266667-4.266667 4.266666-6.4 2.133333-6.4 2.133333-10.666667 0-17.066667z" p-id="13909" fill="#0278ae"></path></svg>