<?xml version="1.0" standalone="no"?><!DOCTYPE svg PUBLIC "-//W3C//DTD SVG 1.1//EN" "http://www.w3.org/Graphics/SVG/1.1/DTD/svg11.dtd"><svg t="1682331700814" class="icon" viewBox="0 0 1024 1024" version="1.1" xmlns="http://www.w3.org/2000/svg" p-id="72890" xmlns:xlink="http://www.w3.org/1999/xlink" width="128" height="128"><path d="M1005.078261 801.391304c0-133.565217-124.66087-242.643478-304.973913-289.391304 64.556522-53.426087 104.626087-133.565217 104.626087-222.608696 0-160.278261-129.113043-289.391304-289.391305-289.391304s-289.391304 129.113043-289.391304 289.391304c0 89.043478 40.069565 169.182609 104.626087 222.608696C161.391304 554.295652 41.182609 654.469565 25.6 776.904348c-4.452174 6.678261-6.678261 15.582609-6.678261 24.486956v146.921739C18.921739 981.704348 52.313043 1024 92.382609 1024h843.686956c35.617391 0 62.330435-31.165217 62.330435-75.686957V823.652174c4.452174-6.678261 6.678261-15.582609 6.678261-22.26087z m-690.086957-512c0-111.304348 89.043478-200.347826 200.347826-200.347826s200.347826 89.043478 200.347827 200.347826c0 109.078261-89.043478 198.121739-198.12174 200.347826h-2.226087-2.226087c-111.304348-2.226087-198.121739-91.269565-198.121739-200.347826zM909.356522 934.956522H107.965217v-113.530435c4.452174-6.678261 6.678261-13.356522 6.678261-20.034783 0-120.208696 182.53913-222.608696 398.469565-222.608695h4.452174c204.8 0 378.434783 91.269565 396.243479 204.8-2.226087 4.452174-4.452174 11.130435-4.452174 17.808695v133.565218z" fill="#ffffff" p-id="72891"></path></svg>